<svg id="Capa_1" data-name="Capa 1" xmlns="http://www.w3.org/2000/svg" xmlns:xlink="http://www.w3.org/1999/xlink" viewBox="0 0 1081.18 1075.9"><defs><style>.cls-1,.cls-5,.cls-6{fill:none;}.cls-2{fill:#f7b089;}.cls-3{fill:#ed6a6a;}.cls-4{fill:#ea525d;}.cls-5{stroke:#f7b089;stroke-width:0.82px;}.cls-5,.cls-6{stroke-miterlimit:10;}.cls-6{stroke:#ca3237;stroke-width:0.94px;}.cls-7{fill:#749e88;}.cls-8{fill:#7d8e5a;}.cls-9{fill:#2e3f51;}.cls-10{fill:#ca3237;}.cls-11{opacity:0.5;fill:url(#Nueva_muestra_de_motivo_10);}</style><pattern id="Nueva_muestra_de_motivo_10" data-name="Nueva muestra de motivo 10" width="156.22" height="227.57" patternTransform="translate(86.37 116.95)" patternUnits="userSpaceOnUse" viewBox="0 0 156.22 227.57"><rect class="cls-1" width="156.22" height="227.57"/><path class="cls-2" d="M133.81,190.61S128.3,204.86,149.4,206C149.4,206,149.33,191.49,133.81,190.61Z"/><path class="cls-2" d="M139.09,183s14.74-8.05,21.07,4.48C160.16,187.44,144.32,195.54,139.09,183Z"/><path class="cls-2" d="M113.29,181.94s1.23-14.56,22.22-8.46C135.51,173.48,124.32,187.13,113.29,181.94Z"/><path class="cls-2" d="M100,185.21s-4.48-10.94,9.61-14.53C109.64,170.68,110.29,183.29,100,185.21Z"/><path class="cls-3" d="M131.46,205s16.18,29.46,12.92,36.91c-1.24,2.82-12.95-13.46-12.95-13.46s-27.92,17.26-37.31,20.71c0,0-13.61-13.12-12.26-32.11Z"/><path class="cls-4" d="M143.48,242.09c.43.18.75.12.9-.23,3.26-7.45-12.92-36.91-12.92-36.91l-1.34.33C133.7,212.06,144.74,233.85,143.48,242.09Z"/><path class="cls-5" d="M150.68,229.58s.24,13.33,13.12,12.95S175.52,227,175.52,227"/><path class="cls-5" d="M156.19,228s.53,12,7.61,14.55c0,0,6.39-3.35,4.79-15.16"/><path class="cls-3" d="M155.62,228.69a2.54,2.54,0,0,0,1.88-.91,2.83,2.83,0,0,0,.67-2,2.49,2.49,0,0,0-2.69-2.49,2.85,2.85,0,0,0-1.38.42,2.93,2.93,0,0,0-1,1,2.49,2.49,0,0,0-.34,1.38,2.71,2.71,0,0,0,.88,1.88A2.58,2.58,0,0,0,155.62,228.69Z"/><path class="cls-6" d="M94.37,199.38s24.95-26.88,49.27,0"/><path class="cls-6" d="M152.6,185.05s-12.41-5.81-27,3"/><path class="cls-6" d="M108.84,189.7s2.17-11.78,19.35-15.51"/><path class="cls-6" d="M101.75,193.41s-4.83-6.92,1.7-15.88"/><path class="cls-3" d="M84.66,188.37s6.55-3.76,6.57-1.08-6.79,3-6.79,3,3.6,2.83,3,4-3.81-2.89-3.81-2.89-2.47,5.92-3.64,5.31,2.81-6.86,2.81-6.86-4.36,1.66-4.22-.38,5-.56,5-.56-.86-5.46,1.29-5.72S84.66,188.37,84.66,188.37Z"/><path class="cls-2" d="M-17.13,183s14.74-8.05,21.07,4.48C3.94,187.44-11.9,195.54-17.13,183Z"/><path class="cls-3" d="M65.59,201s-16-6-23.92,10.93C41.67,212,61.51,214,65.59,201Z"/><path class="cls-7" d="M68.3,200.22s.09.52-.12.47l-.71.26c-.62.22-1.5.55-2.56.92l-1.72.6c-.61.2-1.22.47-1.87.71-1.29.51-2.69,1-4.08,1.53s-2.73,1.16-4,1.68c-.64.28-1.29.49-1.87.76l-1.63.75c-1,.47-1.89.82-2.49,1.08l-1,.4.86-.56c.55-.34,1.32-.85,2.28-1.41l1.55-.93c.55-.33,1.17-.62,1.79-.93,1.25-.63,2.61-1.28,4-1.93s2.81-1.12,4.14-1.61c.67-.24,1.3-.53,1.93-.69l1.75-.5,2.64-.71.74-.2C68,199.76,68.31,200.24,68.3,200.22Z"/><path class="cls-3" d="M67.72,206.64s-8.88,7.6,2.58,15.53C70.3,222.17,77,211.64,67.72,206.64Z"/><path class="cls-7" d="M67,200.61s.5.07.4.2,0,.32,0,.57c0,.49.07,1.18.1,2,0,.42,0,.88,0,1.36s.08,1,.11,1.49c.1,1,.15,2.13.22,3.23s.29,2.2.4,3.23c.07.52.08,1,.18,1.5l.23,1.33c.26,1.65.39,2.78.39,2.78s-.4-1.06-.93-2.68l-.42-1.31a14.62,14.62,0,0,1-.35-1.48c-.22-1-.42-2.15-.63-3.26s-.23-2.26-.29-3.32c0-.53-.1-1-.07-1.52s0-.94.06-1.35c0-.84.1-1.54.12-2l0-.57C66.53,200.67,67.05,200.61,67,200.61Z"/><path class="cls-3" d="M47,277.56s-31-12.82-33.14-20.68c-.81-3,18.51,2.37,18.51,2.37s11-31,16.15-39.53c0,0,18.82,1.7,29.63,17.35Z"/><path class="cls-8" d="M26,213.81s-20.71-4.91-15.25-24l7.17,3.28S13.4,180.51,26,170.68c0,0,7.64,7.64,7.64,25.12l7.09-3.55S42.29,206.72,26,213.81Z"/><path class="cls-9" d="M25.25,178.32s-.17,3.16-.24,7.9-.05,11.05.38,17.34c.2,3.15.49,6.28.92,9.2.2,1.45.46,2.85.73,4.17.14.65.31,1.28.45,1.9l.5,1.74c.2.55.37,1.08.56,1.57s.39.94.59,1.35.41.8.62,1.13l.61.88a5.39,5.39,0,0,0,1,1l.39.31L31.05,228l-.51-.39a7.53,7.53,0,0,1-1.23-1.27c-.2-.3-.42-.65-.67-1s-.42-.8-.65-1.25-.39-.95-.6-1.46-.36-1.08-.55-1.66-.31-1.18-.48-1.81-.28-1.29-.41-2c-.25-1.35-.48-2.78-.66-4.26-.36-2.95-.59-6.12-.71-9.29A233.36,233.36,0,0,1,25.25,178.32Z"/><path class="cls-9" d="M13.42,196.62a29.53,29.53,0,0,0,2.33,4c.43.65.89,1.27,1.36,1.89l.73.91c.24.3.51.58.77.87.51.58,1.06,1.12,1.6,1.68s1.12,1.06,1.73,1.54,1.21.95,1.84,1.4,1.3.82,1.94,1.25l-.32,0a13.21,13.21,0,0,0,1.87-.81,19,19,0,0,0,1.79-1.05c.58-.38,1.13-.8,1.67-1.23s1.06-.9,1.57-1.37c.26-.24.5-.49.74-.74a8.63,8.63,0,0,0,.71-.77l.69-.79.64-.83c.45-.53.81-1.14,1.22-1.71.21-.28.37-.6.56-.9l.55-.9L37,200c-.16.32-.3.64-.48.95-.36.6-.68,1.24-1.09,1.82a19.07,19.07,0,0,1-1.26,1.73c-.21.28-.44.55-.68.82s-.47.53-.72.79a18.07,18.07,0,0,1-1.56,1.47,19.69,19.69,0,0,1-1.7,1.31A19.21,19.21,0,0,1,27.63,210a13.85,13.85,0,0,1-2,.9l-.17.06-.15-.09c-.67-.43-1.37-.82-2-1.3s-1.28-1-1.87-1.47-1.17-1.07-1.75-1.61-1.1-1.14-1.58-1.77c-.25-.31-.51-.6-.74-.93l-.7-1c-.45-.65-.88-1.31-1.28-2A23.61,23.61,0,0,1,13.42,196.62Z"/><path class="cls-9" d="M20.24,183a43.59,43.59,0,0,1,2.58,3.64c.81,1.25,1.56,2.52,2.27,3.82l-.56-.09a41.14,41.14,0,0,1,3.55-2.72,42.9,42.9,0,0,1-3,3.27l-.32.31-.25-.39q-1.2-1.87-2.27-3.83A40.13,40.13,0,0,1,20.24,183Z"/><path class="cls-5" d="M-5.54,229.58s.24,13.33,13.12,12.95S19.3,227,19.3,227"/><path class="cls-5" d="M0,228s.52,12,7.61,14.55c0,0,6.39-3.35,4.79-15.16"/><path class="cls-3" d="M19.48,230.43a1.93,1.93,0,0,0,1.44-.7,2.18,2.18,0,0,0,.52-1.56,1.93,1.93,0,0,0-2.07-1.91,2.23,2.23,0,0,0-1.05.33,2.11,2.11,0,0,0-.78.79,1.87,1.87,0,0,0-.26,1.05,2.1,2.1,0,0,0,.67,1.45A2,2,0,0,0,19.48,230.43Z"/><path class="cls-3" d="M6.29,229.76a2,2,0,0,0,1.44-.71,2.13,2.13,0,0,0,.51-1.55,1.9,1.9,0,0,0-2.06-1.91,2.12,2.12,0,0,0-1.06.32,2.19,2.19,0,0,0-.78.79,1.87,1.87,0,0,0-.25,1.06,2,2,0,0,0,.67,1.44A2,2,0,0,0,6.29,229.76Z"/><path class="cls-3" d="M-.6,228.69a2.56,2.56,0,0,0,1.88-.91,2.83,2.83,0,0,0,.67-2,2.51,2.51,0,0,0-.84-1.87,2.52,2.52,0,0,0-1.85-.62,2.85,2.85,0,0,0-1.38.42,2.93,2.93,0,0,0-1,1,2.49,2.49,0,0,0-.34,1.38A2.71,2.71,0,0,0-2.59,228,2.57,2.57,0,0,0-.6,228.69Z"/><path class="cls-3" d="M12.56,228.68a2.54,2.54,0,0,0,1.88-.91,2.83,2.83,0,0,0,.67-2,2.49,2.49,0,0,0-2.69-2.49,2.78,2.78,0,0,0-1.37.42,2.88,2.88,0,0,0-1,1,2.4,2.4,0,0,0-.33,1.38,2.66,2.66,0,0,0,.87,1.88A2.58,2.58,0,0,0,12.56,228.68Z"/><path class="cls-3" d="M52.08,184.56s-8.55-9.08-4.25-10.13,7.33,9.78,7.33,9.78,3.17-6.86,5.27-6.42S57.25,185,57.25,185s10.44,1.7,9.92,3.82-12.1-1.9-12.1-1.9,4.33,6.38,1,6.93S53.25,186,53.25,186s-8.45,3.46-9.67.1S52.08,184.56,52.08,184.56Z"/><path class="cls-8" d="M165.46,147s-18.31-2.1-21.12,19.06C144.34,166.07,165.33,162.69,165.46,147Z"/><path class="cls-9" d="M168,145.34s.26.55,0,.55l-.65.5c-.56.42-1.36,1-2.33,1.76l-1.58,1.16c-.57.4-1.11.87-1.7,1.33-1.17,1-2.45,1.9-3.71,2.88s-2.44,2.08-3.61,3c-.56.49-1.17.91-1.67,1.39l-1.45,1.3c-.89.81-1.68,1.45-2.21,1.92s-.86.71-.86.71L149,161c.46-.53,1.09-1.33,1.9-2.24l1.3-1.47c.45-.53,1-1,1.54-1.56,1.09-1.06,2.28-2.17,3.46-3.28s2.53-2.06,3.74-3c.62-.45,1.17-1,1.77-1.31l1.64-1.06c1-.66,1.88-1.18,2.48-1.56l.7-.43C167.56,144.9,168,145.36,168,145.34Z"/><path class="cls-2" d="M55.7,76.82S50.19,91.08,71.29,92.21C71.29,92.21,71.22,77.71,55.7,76.82Z"/><path class="cls-2" d="M61,69.18s14.74-8.06,21.07,4.47C82.05,73.65,66.21,81.75,61,69.18Z"/><path class="cls-2" d="M35.18,68.16s1.23-14.57,22.22-8.47C57.4,59.69,46.2,73.34,35.18,68.16Z"/><path class="cls-2" d="M21.92,71.42s-4.48-10.94,9.61-14.53C31.53,56.89,32.18,69.5,21.92,71.42Z"/><path class="cls-8" d="M9.24,147s-18.31-2.1-21.12,19.06C-11.88,166.07,9.1,162.69,9.24,147Z"/><path class="cls-9" d="M11.76,145.34s.26.55,0,.55l-.65.5c-.57.42-1.36,1-2.34,1.76l-1.57,1.16c-.57.4-1.11.87-1.7,1.33-1.17,1-2.45,1.9-3.71,2.88s-2.44,2.08-3.61,3c-.57.49-1.17.91-1.67,1.39l-1.45,1.3c-.89.81-1.68,1.45-2.21,1.92l-.86.71.7-.86c.46-.53,1.1-1.33,1.91-2.24l1.3-1.47c.45-.53,1-1,1.54-1.56,1.09-1.06,2.28-2.17,3.46-3.28s2.53-2.06,3.74-3c.62-.45,1.17-1,1.76-1.31l1.64-1.06c1-.66,1.89-1.18,2.49-1.56l.69-.43C11.34,144.9,11.78,145.36,11.76,145.34Z"/><path class="cls-3" d="M143.7,87.24s-16-6-23.92,10.93C119.78,98.17,139.62,100.23,143.7,87.24Z"/><path class="cls-7" d="M146.41,86.43s.09.52-.11.47l-.72.26-2.56.93-1.72.59c-.61.21-1.22.47-1.87.71-1.29.52-2.69,1-4.08,1.53s-2.73,1.16-4,1.68c-.64.28-1.29.49-1.86.77s-1.14.51-1.64.75c-1,.46-1.89.81-2.49,1.08l-1,.39.85-.55c.55-.34,1.32-.85,2.29-1.42l1.55-.92c.54-.34,1.16-.62,1.78-.94,1.26-.63,2.61-1.27,4-1.92s2.81-1.13,4.14-1.62c.67-.23,1.3-.52,1.93-.68l1.75-.5c1.09-.31,2-.54,2.64-.72l.74-.19C146.14,86,146.42,86.45,146.41,86.43Z"/><path class="cls-3" d="M145.83,92.86s-8.88,7.6,2.58,15.52C148.41,108.38,155.13,97.85,145.83,92.86Z"/><path class="cls-7" d="M145.14,86.82s.49.07.39.2,0,.33,0,.57c0,.49.07,1.19.1,2q0,.63,0,1.35c0,.48.08,1,.11,1.49.1,1,.15,2.13.22,3.23s.29,2.2.4,3.24c.08.51.08,1,.18,1.49l.23,1.33c.26,1.66.39,2.78.39,2.78s-.4-1.06-.93-2.67l-.42-1.31a14.83,14.83,0,0,1-.35-1.49c-.22-1-.42-2.14-.63-3.26s-.22-2.25-.29-3.31c0-.53-.1-1-.07-1.53s0-.93.06-1.35c0-.84.1-1.54.12-2l0-.57C144.64,86.89,145.16,86.82,145.14,86.82Z"/><path class="cls-3" d="M125.07,163.77S94,151,91.93,143.09c-.8-3,18.51,2.38,18.51,2.38s11-31,16.15-39.54c0,0,18.82,1.7,29.63,17.35Z"/><path class="cls-4" d="M92.48,142.34c-.44.14-.65.38-.55.75,2.11,7.86,33.14,20.68,33.14,20.68l.84-1.09C118.88,159.63,96.65,149.56,92.48,142.34Z"/><path class="cls-3" d="M53.35,91.17s16.18,29.45,12.92,36.9C65,130.9,53.32,114.61,53.32,114.61S25.4,131.88,16,135.32c0,0-13.61-13.12-12.26-32.1Z"/><path class="cls-4" d="M65.37,128.31c.43.17.75.11.9-.24,3.26-7.45-12.92-36.9-12.92-36.9L52,91.49C55.59,98.28,66.63,120.06,65.37,128.31Z"/><path class="cls-8" d="M104.06,100s-20.7-4.92-15.25-24L96,79.28s-4.47-12.56,8.08-22.39c0,0,7.65,7.65,7.65,25.12l7.08-3.55S120.4,92.93,104.06,100Z"/><path class="cls-9" d="M103.36,64.54s-.17,3.15-.24,7.89,0,11.06.38,17.35c.2,3.14.49,6.28.92,9.19.21,1.46.46,2.86.73,4.17.14.66.31,1.29.45,1.9s.34,1.19.5,1.75.37,1.07.56,1.56.39,1,.59,1.36.41.79.62,1.12.42.62.61.88a5.85,5.85,0,0,0,1,1l.39.3-.73,1.17-.5-.4a7.39,7.39,0,0,1-1.24-1.26c-.2-.31-.42-.65-.67-1s-.41-.81-.65-1.25-.39-1-.6-1.47-.36-1.08-.55-1.65-.31-1.19-.47-1.82-.29-1.28-.42-2c-.25-1.35-.48-2.77-.66-4.25-.36-3-.59-6.13-.71-9.29A233.22,233.22,0,0,1,103.36,64.54Z"/><path class="cls-9" d="M91.53,82.83a28.94,28.94,0,0,0,2.33,4c.43.65.89,1.28,1.36,1.9l.73.9c.24.31.51.58.77.87.51.59,1.06,1.13,1.6,1.68s1.12,1.07,1.73,1.54a20.74,20.74,0,0,0,1.84,1.4c.62.46,1.3.82,1.94,1.25l-.32,0a14.48,14.48,0,0,0,1.87-.81,19.12,19.12,0,0,0,1.79-1.06,17.92,17.92,0,0,0,1.67-1.23c.54-.43,1.06-.89,1.58-1.36.25-.24.49-.5.73-.74a10.27,10.27,0,0,0,.71-.77l.69-.79.64-.83c.45-.54.81-1.14,1.22-1.71.21-.29.37-.6.56-.9l.55-.9-.45.95c-.16.32-.3.65-.48,1-.36.61-.68,1.25-1.09,1.83a16.12,16.12,0,0,1-1.26,1.72,10.56,10.56,0,0,1-.68.82c-.24.26-.47.54-.72.79a19.88,19.88,0,0,1-1.56,1.48,19.58,19.58,0,0,1-1.7,1.3,21.58,21.58,0,0,1-1.84,1.13,13.85,13.85,0,0,1-2,.9l-.17,0-.15-.09c-.67-.43-1.36-.82-2-1.3s-1.28-.94-1.87-1.47-1.17-1.07-1.75-1.61-1.1-1.13-1.58-1.76c-.25-.31-.51-.61-.74-.93l-.7-1c-.44-.65-.88-1.31-1.28-2A23.61,23.61,0,0,1,91.53,82.83Z"/><path class="cls-9" d="M98.35,69.18a39.24,39.24,0,0,1,2.58,3.63c.81,1.25,1.56,2.52,2.28,3.82l-.57-.08a40.79,40.79,0,0,1,3.55-2.73,39.44,39.44,0,0,1-3,3.27l-.32.31-.25-.39q-1.2-1.87-2.27-3.82A41.22,41.22,0,0,1,98.35,69.18Z"/><path class="cls-2" d="M39.87,144.75s-3.29,9.41,1.68,14.42S44.23,155,47.3,155s-.73,15.89,6.81,15.9c9.13,0,1.24-9.6,4.55-9s7,15.77,13.72,14.28-3.16-10.42.32-10.73,13.77,14.75,19.37,6.2c6.64-10.13-8.36-9.79-14.75-10.32s-3.63-3.7,1.58-3.34,8.42-5.6,2.4-8.61c-3.07-1.53-15.29,7.27-16.73,4.2s10.3-1.63,9.17-6.56c-1.75-7.67-18.91,4-20.48,1.34s7-1,7.41-4.51S47.8,139.43,39.87,144.75Z"/><path class="cls-10" d="M29.66,136.7s.86.67,2.37,1.74c.77.54,1.67,1.22,2.75,1.95l3.65,2.45c1.32.91,2.83,1.8,4.39,2.78s3.21,2,5,3l5.41,3.07L56,153.28l2.87,1.46,5.74,2.88c1.88,1,3.82,1.75,5.66,2.58l5.34,2.32c.85.37,1.67.74,2.47,1.07l2.37.87,10.14,3.64-10.2-3.49-2.39-.8c-.82-.3-1.65-.66-2.51-1l-5.4-2.18c-1.87-.78-3.84-1.49-5.75-2.43l-5.84-2.72-2.94-1.34-2.86-1.46-5.56-2.84c-1.8-.92-3.49-1.93-5.12-2.82s-3.17-1.74-4.55-2.6l-3.8-2.28c-1.14-.67-2.1-1.31-2.91-1.82-1.63-1-2.5-1.62-2.5-1.62Z"/><path class="cls-10" d="M70.91,173c-.62-1.18-1.19-2.38-1.78-3.57s-1.06-2.44-1.6-3.66-1-2.47-1.5-3.7-1-2.47-1.47-3.72l-.13-.37.36-.14c1.11-.41,2.21-.81,3.32-1.2s2.22-.77,3.35-1.1,2.27-.65,3.41-.95l1.73-.35c.58-.11,1.18-.12,1.76-.18l-.86.19a6.28,6.28,0,0,0-.86.19l-1.67.52c-1.11.38-2.22.74-3.31,1.15-2.2.82-4.41,1.6-6.57,2.48l.23-.51c.5,1.23.94,2.48,1.42,3.71s1,2.48,1.4,3.73.85,2.51,1.37,3.74S70.47,171.7,70.91,173Z"/><path class="cls-10" d="M54.24,165.82a30.71,30.71,0,0,1-.41-3.18c-.06-.53-.08-1.06-.09-1.6s-.06-1.07-.05-1.6v-1.61l.11-1.6c0-1.07.24-2.13.36-3.2l0-.2.21-.1c1.06-.5,2.15-.93,3.22-1.39s2.17-.9,3.28-1.29,2.22-.75,3.34-1.11c.56-.16,1.14-.28,1.71-.42a11.65,11.65,0,0,1,1.75-.23c-.57.16-1.14.24-1.69.44s-1.1.39-1.64.6c-1.09.43-2.17.85-3.23,1.33L57.92,152l-3.19,1.42.23-.29c-.14,1-.35,2.07-.42,3.13s-.18,2.1-.24,3.15c0,.53,0,1.06-.07,1.59s0,1.06,0,1.59C54.18,163.69,54.22,164.75,54.24,165.82Z"/><path class="cls-10" d="M43.63,156.69a18.36,18.36,0,0,1-.3-2.46,10.43,10.43,0,0,1,0-1.25c0-.41,0-.83,0-1.24l.1-1.25c.06-.41.14-.83.21-1.24a7.46,7.46,0,0,1,.29-1.22l.34-1.21,0-.14.13-.08a20.91,20.91,0,0,1,2.4-1.13c.41-.16.82-.33,1.24-.46s.83-.29,1.26-.38l1.29-.3c.43-.1.87-.13,1.3-.2a7.2,7.2,0,0,1,1.31-.07l1.31,0c-.43.08-.86.14-1.29.2a8.06,8.06,0,0,0-1.26.26c-.42.1-.84.17-1.25.3l-1.22.4c-.4.14-.8.31-1.2.45s-.79.32-1.18.5c-.79.32-1.56.72-2.3,1.11l.18-.21-.35,1.15a9.12,9.12,0,0,0-.3,1.17c-.09.39-.18.79-.26,1.19L44,151.8c-.07.4-.09.8-.14,1.21s-.07.81-.09,1.22C43.64,155.05,43.64,155.86,43.63,156.69Z"/><path class="cls-5" d="M72.57,115.79s.24,13.33,13.12,13,11.72-15.49,11.72-15.49"/><path class="cls-5" d="M78.08,114.19s.52,12,7.61,14.55c0,0,6.39-3.34,4.79-15.16"/><path class="cls-5" d="M84.33,113.89s.13,23.31,6.58,25.28"/><path class="cls-3" d="M72.73,118.63a2,2,0,0,0,1.44-.7,2.17,2.17,0,0,0,.51-1.56,1.9,1.9,0,0,0-2.06-1.91,2.22,2.22,0,0,0-1.06.32,2.19,2.19,0,0,0-.78.79,1.87,1.87,0,0,0-.25,1.06,2,2,0,0,0,.67,1.44A2,2,0,0,0,72.73,118.63Z"/><path class="cls-3" d="M97.59,116.64a1.89,1.89,0,0,0,1.44-.7,2.09,2.09,0,0,0,.52-1.55,2,2,0,0,0-.64-1.44,2,2,0,0,0-1.43-.48,2.23,2.23,0,0,0-1,.33,2.19,2.19,0,0,0-.78.79,1.88,1.88,0,0,0-.26,1.06,2.08,2.08,0,0,0,.67,1.44A2,2,0,0,0,97.59,116.64Z"/><path class="cls-3" d="M84.4,116a2,2,0,0,0,1.44-.7,2.17,2.17,0,0,0,.51-1.56,1.91,1.91,0,0,0-2.06-1.91,2.34,2.34,0,0,0-1.06.32,2.27,2.27,0,0,0-.78.79A1.89,1.89,0,0,0,82.2,114a2,2,0,0,0,.67,1.44A2,2,0,0,0,84.4,116Z"/><path class="cls-3" d="M77.51,114.91a2.52,2.52,0,0,0,1.88-.92,2.81,2.81,0,0,0,.67-2,2.51,2.51,0,0,0-.84-1.87,2.56,2.56,0,0,0-1.85-.62,3.09,3.09,0,0,0-1.38.42,3,3,0,0,0-1,1,2.43,2.43,0,0,0-.34,1.37,2.71,2.71,0,0,0,.88,1.88A2.61,2.61,0,0,0,77.51,114.91Z"/><path class="cls-3" d="M90.67,114.9a2.55,2.55,0,0,0,1.88-.92,2.78,2.78,0,0,0,.67-2,2.51,2.51,0,0,0-.84-1.87,2.54,2.54,0,0,0-1.85-.62,3,3,0,0,0-1.37.42,3,3,0,0,0-1,1,2.4,2.4,0,0,0-.33,1.38,2.66,2.66,0,0,0,.87,1.88A2.63,2.63,0,0,0,90.67,114.9Z"/><path class="cls-6" d="M16.25,85.6s25-26.89,49.27,0"/><path class="cls-6" d="M74.49,71.27s-12.41-5.82-27,3"/><path class="cls-6" d="M30.73,75.91S32.9,64.14,50.07,60.4"/><path class="cls-6" d="M23.64,79.62s-4.83-6.92,1.7-15.88"/><path class="cls-3" d="M130.19,70.77s-8.55-9.07-4.25-10.12,7.33,9.78,7.33,9.78,3.17-6.87,5.27-6.43-3.18,7.23-3.18,7.23,10.44,1.7,9.92,3.83-12.1-1.91-12.1-1.91,4.33,6.38,1,6.94-2.8-7.84-2.8-7.84-8.46,3.47-9.68.11S130.19,70.77,130.19,70.77Z"/><path class="cls-3" d="M21.6,155.1s8.24-4.74,8.26-1.36-8.55,3.71-8.55,3.71,4.53,3.56,3.84,5.05-4.81-3.64-4.81-3.64-3.1,7.44-4.59,6.69,3.55-8.65,3.55-8.65S13.8,159,14,156.41s6.31-.7,6.31-.7-1.08-6.88,1.63-7.2S21.6,155.1,21.6,155.1Z"/><path class="cls-3" d="M6.55,74.59s6.55-3.77,6.56-1.08-6.78,2.94-6.78,2.94,3.59,2.83,3,4-3.81-2.89-3.81-2.89-2.47,5.91-3.64,5.31S4.73,76,4.73,76,.37,77.68.51,75.63s5-.56,5-.56-.86-5.46,1.29-5.71S6.55,74.59,6.55,74.59Z"/><path class="cls-8" d="M87.35,33.23S69,31.12,66.23,52.28C66.23,52.28,87.21,48.9,87.35,33.23Z"/><path class="cls-9" d="M89.87,31.55s.26.55,0,.56l-.65.49c-.56.43-1.36,1-2.33,1.77l-1.58,1.15c-.57.41-1.11.88-1.7,1.34-1.17.94-2.45,1.89-3.71,2.87s-2.44,2.08-3.61,3c-.57.5-1.17.92-1.67,1.39l-1.45,1.3c-.89.82-1.68,1.46-2.21,1.92l-.86.72.7-.86c.47-.54,1.1-1.33,1.91-2.24L74,43.52c.45-.54,1-1,1.54-1.56,1.09-1.07,2.28-2.17,3.46-3.29s2.53-2.06,3.74-3c.62-.46,1.17-1,1.76-1.32l1.65-1.06c1-.65,1.88-1.18,2.48-1.55l.69-.44C89.45,31.11,89.89,31.57,89.87,31.55Z"/><path class="cls-3" d="M131.46-22.62s16.18,29.46,12.92,36.91C143.14,17.11,131.43.83,131.43.83S103.51,18.09,94.12,21.54c0,0-13.61-13.12-12.26-32.11Z"/><path class="cls-4" d="M143.48,14.52c.43.17.75.12.9-.23,3.26-7.45-12.92-36.91-12.92-36.91l-1.34.33C133.7-15.51,144.74,6.28,143.48,14.52Z"/><path class="cls-2" d="M118,31s-3.29,9.41,1.68,14.42,2.68-4.19,5.75-4.13-.73,15.89,6.81,15.91c9.13,0,1.24-9.6,4.55-9s7,15.76,13.72,14.28-3.16-10.42.32-10.73,13.77,14.74,19.37,6.2c6.64-10.13-8.36-9.79-14.74-10.33s-3.64-3.69,1.58-3.34,8.41-5.6,2.39-8.61c-3.07-1.53-15.29,7.27-16.73,4.2s10.3-1.63,9.17-6.55c-1.75-7.67-18.91,4-20.48,1.33s7-1,7.41-4.51S125.91,25.65,118,31Z"/><path class="cls-10" d="M107.77,22.91s.86.67,2.37,1.75c.77.54,1.67,1.22,2.75,1.95l3.65,2.45c1.32.91,2.83,1.79,4.39,2.77s3.21,2,5,3l5.41,3.06,2.78,1.57L137,41l5.74,2.87c1.88,1,3.82,1.75,5.66,2.58l5.34,2.33c.85.36,1.67.74,2.47,1.07l2.37.86,10.14,3.64-10.2-3.48-2.39-.8c-.82-.31-1.65-.66-2.51-1l-5.4-2.19c-1.87-.78-3.84-1.48-5.75-2.43l-5.83-2.71-3-1.35-2.86-1.45-5.56-2.84c-1.8-.93-3.49-1.93-5.12-2.83s-3.17-1.74-4.54-2.6l-3.81-2.27c-1.13-.68-2.1-1.32-2.91-1.82-1.62-1-2.5-1.62-2.5-1.62Z"/><path class="cls-10" d="M149,59.17c-.63-1.18-1.2-2.38-1.79-3.57s-1.06-2.44-1.6-3.66-1-2.47-1.5-3.7-1-2.47-1.47-3.72l-.13-.37.37-.13c1.1-.42,2.2-.81,3.31-1.21s2.22-.77,3.36-1.09,2.26-.66,3.4-.95l1.73-.35a17.52,17.52,0,0,1,1.76-.19l-.86.19a5.85,5.85,0,0,0-.85.2l-1.68.51c-1.11.39-2.22.74-3.31,1.16-2.2.82-4.41,1.6-6.57,2.47l.23-.5c.5,1.22.94,2.47,1.42,3.71s1,2.47,1.4,3.72.85,2.52,1.37,3.74S148.58,57.91,149,59.17Z"/><path class="cls-10" d="M132.35,52a30.88,30.88,0,0,1-.41-3.17c-.06-.54-.07-1.07-.09-1.6s0-1.07,0-1.61v-1.6l.11-1.6c.05-1.08.24-2.14.36-3.2l0-.2.21-.1c1.06-.5,2.15-.94,3.22-1.39s2.17-.91,3.28-1.29,2.22-.76,3.34-1.12c.56-.15,1.14-.28,1.71-.42a13.11,13.11,0,0,1,1.75-.23c-.57.17-1.14.24-1.69.45s-1.1.39-1.64.6c-1.08.42-2.17.85-3.23,1.32L136,38.25l-3.19,1.43.23-.3c-.14,1-.35,2.08-.42,3.13s-.18,2.1-.24,3.16c0,.53,0,1-.07,1.58s0,1.06,0,1.59C132.29,49.9,132.33,51,132.35,52Z"/><path class="cls-10" d="M121.74,42.91a18.51,18.51,0,0,1-.3-2.47c0-.41,0-.83,0-1.24s0-.83,0-1.25l.1-1.25c.06-.41.14-.82.21-1.23a7.33,7.33,0,0,1,.29-1.23L122.4,33l0-.14.14-.08A21.69,21.69,0,0,1,125,31.68c.41-.16.82-.33,1.24-.45s.83-.29,1.26-.39l1.29-.29c.43-.1.87-.13,1.3-.2a7.26,7.26,0,0,1,1.32-.08c.43,0,.87,0,1.3,0-.43.07-.86.14-1.29.19a8.06,8.06,0,0,0-1.26.26c-.42.11-.84.17-1.25.31l-1.22.39c-.4.14-.8.31-1.2.46s-.79.32-1.18.49c-.79.33-1.56.72-2.3,1.12l.18-.22-.35,1.15a10,10,0,0,0-.3,1.17c-.08.4-.18.79-.26,1.19l-.19,1.2c-.07.4-.09.81-.14,1.21s-.07.82-.09,1.22C121.75,41.26,121.76,42.08,121.74,42.91Z"/><path class="cls-5" d="M150.68,2s.24,13.34,13.12,13S175.52-.54,175.52-.54"/><path class="cls-5" d="M156.19.4s.53,12,7.61,14.55c0,0,6.39-3.34,4.79-15.15"/><path class="cls-3" d="M150.84,4.84a2,2,0,0,0,1.44-.7,2.17,2.17,0,0,0,.51-1.56,1.91,1.91,0,0,0-.64-1.43,2,2,0,0,0-1.42-.48,2.24,2.24,0,0,0-1.06.33,2.16,2.16,0,0,0-.77.79,1.87,1.87,0,0,0-.26,1,2,2,0,0,0,.67,1.45A2,2,0,0,0,150.84,4.84Z"/><path class="cls-3" d="M155.62,1.12A2.54,2.54,0,0,0,157.5.21a2.83,2.83,0,0,0,.67-2,2.51,2.51,0,0,0-.84-1.87,2.5,2.5,0,0,0-1.85-.62,2.85,2.85,0,0,0-1.38.42,2.93,2.93,0,0,0-1,1,2.49,2.49,0,0,0-.34,1.38A2.71,2.71,0,0,0,153.63.4,2.58,2.58,0,0,0,155.62,1.12Z"/><path class="cls-3" d="M99.71,41.32S108,36.57,108,40s-8.55,3.71-8.55,3.71,4.53,3.57,3.84,5.05-4.81-3.64-4.81-3.64-3.1,7.45-4.59,6.69,3.55-8.64,3.55-8.64-5.5,2.09-5.32-.49,6.31-.7,6.31-.7-1.08-6.88,1.63-7.2S99.71,41.32,99.71,41.32Z"/><path class="cls-3" d="M47,50s-31-12.83-33.14-20.68c-.81-3,18.51,2.37,18.51,2.37s11-31,16.15-39.54c0,0,18.82,1.7,29.63,17.36Z"/><path class="cls-4" d="M14.37,28.56c-.44.13-.65.38-.55.75C15.93,37.16,47,50,47,50l.84-1.1C40.77,45.85,18.54,35.78,14.37,28.56Z"/><path class="cls-9" d="M25.25-49.25s-.17,3.16-.24,7.89S25-30.3,25.39-24c.2,3.15.49,6.28.92,9.19.2,1.46.46,2.86.73,4.17.14.66.31,1.29.45,1.91L28-7c.2.55.37,1.08.56,1.57s.39.94.59,1.35.41.8.62,1.13l.61.88a5.72,5.72,0,0,0,1,1l.39.3L31.05.4,30.54,0a7.39,7.39,0,0,1-1.23-1.26c-.2-.31-.42-.65-.67-1s-.42-.8-.65-1.25-.39-1-.6-1.46S27-6.07,26.84-6.65s-.31-1.19-.48-1.81-.28-1.29-.41-2c-.25-1.35-.48-2.78-.66-4.26-.36-3-.59-6.12-.71-9.29A233.36,233.36,0,0,1,25.25-49.25Z"/><path class="cls-2" d="M-38.24,31s-3.29,9.41,1.68,14.42,2.68-4.19,5.75-4.13S-31.54,57.14-24,57.16c9.13,0,1.23-9.6,4.55-9s7,15.76,13.72,14.28S-8.89,52-5.41,51.71,8.36,66.45,14,57.91C20.6,47.78,5.6,48.12-.79,47.58S-4.42,43.89.79,44.24s8.42-5.6,2.4-8.61C.12,34.1-12.1,42.9-13.54,39.83s10.3-1.63,9.17-6.55c-1.75-7.67-18.91,4-20.48,1.33s7-1,7.4-4.51S-30.31,25.65-38.24,31Z"/><path class="cls-10" d="M-48.45,22.91s.85.67,2.37,1.75c.77.54,1.67,1.22,2.75,1.95l3.65,2.45c1.32.91,2.83,1.79,4.39,2.77s3.21,2,5,3l5.41,3.06,2.78,1.57L-19.27,41l5.74,2.87c1.88,1,3.82,1.75,5.66,2.58l5.34,2.33c.85.36,1.67.74,2.47,1.07l2.37.86,10.14,3.64L2.25,50.83-.14,50c-.82-.31-1.65-.66-2.51-1L-8,46.84c-1.87-.78-3.84-1.48-5.75-2.43l-5.84-2.71-2.94-1.35-2.86-1.45L-31,36.06c-1.8-.93-3.49-1.93-5.12-2.83s-3.17-1.74-4.55-2.6l-3.8-2.27c-1.14-.68-2.1-1.32-2.91-1.82-1.63-1-2.5-1.62-2.5-1.62Z"/><path class="cls-10" d="M-7.2,59.17C-7.82,58-8.39,56.79-9,55.6s-1-2.44-1.59-3.66-1-2.47-1.5-3.7-1-2.47-1.47-3.72l-.13-.37.36-.13c1.11-.42,2.21-.81,3.32-1.21s2.22-.77,3.35-1.09,2.27-.66,3.4-.95l1.74-.35a17.52,17.52,0,0,1,1.76-.19l-.87.19a6.53,6.53,0,0,0-.85.2l-1.67.51c-1.11.39-2.22.74-3.32,1.16-2.19.82-4.4,1.6-6.57,2.47l.24-.5c.5,1.22.94,2.47,1.42,3.71s.95,2.47,1.39,3.72.86,2.52,1.38,3.74S-7.64,57.91-7.2,59.17Z"/><path class="cls-5" d="M-5.54,2S-5.3,15.34,7.58,15,19.3-.54,19.3-.54"/><path class="cls-5" d="M0,.4S.49,12.39,7.58,15c0,0,6.39-3.34,4.79-15.15"/><path class="cls-5" d="M6.22.1s.13,23.32,6.57,25.28"/><path class="cls-3" d="M19.48,2.86a1.93,1.93,0,0,0,1.44-.7A2.18,2.18,0,0,0,21.44.6a2,2,0,0,0-.65-1.44,1.93,1.93,0,0,0-1.42-.47A2.22,2.22,0,0,0,18.32-1a2.19,2.19,0,0,0-.78.79A1.88,1.88,0,0,0,17.28.86,2.08,2.08,0,0,0,18,2.3,2,2,0,0,0,19.48,2.86Z"/><path class="cls-3" d="M6.29,2.18a2,2,0,0,0,1.44-.7A2.13,2.13,0,0,0,8.24-.07,1.91,1.91,0,0,0,7.6-1.51,2,2,0,0,0,6.18-2a2.24,2.24,0,0,0-1.06.33,2.19,2.19,0,0,0-.78.79A1.87,1.87,0,0,0,4.09.19a2,2,0,0,0,.67,1.44A2,2,0,0,0,6.29,2.18Z"/><path class="cls-3" d="M-.6,1.12A2.56,2.56,0,0,0,1.28.21a2.83,2.83,0,0,0,.67-2,2.51,2.51,0,0,0-.84-1.87A2.52,2.52,0,0,0-.74-4.31a2.85,2.85,0,0,0-1.38.42,2.93,2.93,0,0,0-1,1,2.49,2.49,0,0,0-.34,1.38A2.71,2.71,0,0,0-2.59.4,2.57,2.57,0,0,0-.6,1.12Z"/><path class="cls-3" d="M12.56,1.11A2.54,2.54,0,0,0,14.44.2a2.83,2.83,0,0,0,.67-2,2.5,2.5,0,0,0-.84-1.87,2.5,2.5,0,0,0-1.85-.62,2.78,2.78,0,0,0-1.37.42,2.88,2.88,0,0,0-1,1A2.4,2.4,0,0,0,9.7-1.49,2.66,2.66,0,0,0,10.57.39,2.58,2.58,0,0,0,12.56,1.11Z"/></pattern></defs><rect class="cls-11" width="1081.18" height="1075.9"/></svg>